<?xml version="1.0" standalone="no"?><!DOCTYPE svg PUBLIC "-//W3C//DTD SVG 1.1//EN" "http://www.w3.org/Graphics/SVG/1.1/DTD/svg11.dtd"><svg t="1573726359196" class="icon" viewBox="0 0 1024 1024" version="1.1" xmlns="http://www.w3.org/2000/svg" p-id="4687" xmlns:xlink="http://www.w3.org/1999/xlink" width="32" height="32"><defs><style type="text/css"></style></defs><path d="M922.76176 63.704904l-825.63414 0c-18.990516 0-34.608216 15.421224-34.608216 34.444487l0 825.862337c0 19.039635 15.617699 34.443463 34.608216 34.443463l825.63414 0c19.087731 0 34.672684-15.403828 34.672684-34.443463L957.434443 98.149391C957.434443 79.126128 941.84949 63.704904 922.76176 63.704904L922.76176 63.704904zM291.118845 889.569288 291.118845 889.569288 131.408377 889.569288l0-67.414389 51.238988 0c19.1215 0 34.508955-15.634072 34.508955-34.689057s-15.388479-34.444487-34.508955-34.444487l-51.238988 0L131.408377 637.739772l51.238988 0c19.1215 0 34.508955-15.388479 34.508955-34.689057 0-18.826787-15.388479-34.46086-34.508955-34.46086l-51.238988 0L131.408377 453.308273l51.238988 0c19.1215 0 34.508955-15.372106 34.508955-34.443463 0-18.810415-15.388479-34.44244-34.508955-34.44244l-51.238988 0L131.408377 269.139763l51.238988 0c19.1215 0 34.508955-15.159258 34.508955-34.689057 0-18.809391-15.388479-34.198893-34.508955-34.198893l-51.238988 0L131.408377 132.592854l159.710468 0L291.118845 889.569288 291.118845 889.569288zM888.54854 889.569288 888.54854 889.569288 332.209706 889.569288 332.209706 132.592854l556.338834 0L888.54854 889.569288 888.54854 889.569288zM469.722616 711.259206 469.722616 711.259206l281.083793 0c11.525498 0 21.019733-9.544377 21.019733-21.019733l0-30.267351c0-14.669094-3.14462-29.091572-8.80862-42.024116-5.598508-13.19451-13.685697-25.88146-23.933085-35.655058-9.78997-10.263761-22.427802-18.563798-35.917024-23.934109l-4.846378-2.193968 3.601015-3.176342c22.985504-22.968108 37.4571-55.709813 37.4571-91.381244 0-35.425837-14.471596-67.905576-37.4571-90.840938-23.408129-23.458271-56.084343-38.109969-91.836615-38.109969-35.623335 0-67.87283 14.651698-90.824565 38.109969-23.410176 22.936385-38.112016 55.415101-38.112016 90.840938 0 35.671431 14.700817 68.412113 38.112016 91.381244l2.946099 3.176342c-15.617699 5.630231-29.303396 14.390755-40.827871 26.127054-9.953699 9.773598-18.334577 22.460548-23.868617 35.655058-5.435803 12.933567-8.611122 27.355021-8.611122 42.024116l0 30.267351C448.898335 701.714829 458.198142 711.259206 469.722616 711.259206L469.722616 711.259206zM548.104801 399.579581 548.104801 399.579581c15.845896-15.877619 38.110993-25.635867 61.97961-25.635867 24.423249 0 46.491871 9.758248 62.533218 25.635867 15.685237 15.864316 25.474185 37.865399 25.474185 62.028729 0 24.440645-9.787924 46.411029-25.474185 62.536288-15.813151 15.159258-37.093826 25.161053-61.060681 25.424042l-2.391467 0c-23.966854-0.26299-45.445028-10.264784-61.061704-25.424042-15.584953-16.124236-25.669636-38.095643-25.669636-62.536288C522.435165 437.44498 532.519848 415.443897 548.104801 399.579581L548.104801 399.579581zM490.414891 659.972123 490.414891 659.972123c0-9.282411 1.703805-18.336624 5.435803-25.89988 2.947122-8.806573 8.250918-16.125259 14.863523-22.983457 12.213159-12.17939 29.828352-20.267603 49.079812-20.267603l101.627608 0c9.298783 0 18.107403 2.210341 26.357298 5.369288 8.349155 3.667529 15.617699 8.562003 22.265096 14.898315 6.385431 6.858198 11.456936 14.176884 14.863523 22.983457 3.437286 7.563256 5.435803 16.616446 5.435803 25.89988l0 9.772574L490.414891 669.744697 490.414891 659.972123 490.414891 659.972123z" p-id="4688"></path></svg>